<svg width="900" height="560" viewBox="0 0 900 560" fill="none" xmlns="http://www.w3.org/2000/svg">
  <rect width="900" height="560" fill="#F4F7FB"/>
  <rect x="60" y="54" width="780" height="452" rx="16" fill="#FFFFFF" stroke="#C9D3E1" stroke-width="2"/>
  <rect x="60" y="54" width="176" height="452" rx="16" fill="#172033"/>
  <rect x="60" y="94" width="176" height="372" fill="#172033"/>
  <rect x="92" y="94" width="82" height="14" rx="7" fill="#FFFFFF"/>
  <rect x="92" y="152" width="104" height="10" rx="5" fill="#AEB9D6"/>
  <rect x="92" y="190" width="84" height="10" rx="5" fill="#AEB9D6" fill-opacity="0.72"/>
  <rect x="92" y="228" width="114" height="10" rx="5" fill="#AEB9D6" fill-opacity="0.72"/>
  <rect x="280" y="94" width="182" height="22" rx="11" fill="#172033"/>
  <rect x="280" y="142" width="506" height="50" rx="12" fill="#F4F7FB" stroke="#C9D3E1"/>
  <rect x="306" y="161" width="122" height="12" rx="6" fill="#263579"/>
  <rect x="512" y="161" width="88" height="12" rx="6" fill="#64748B"/>
  <rect x="668" y="161" width="74" height="12" rx="6" fill="#C1272D" fill-opacity="0.75"/>
  <rect x="280" y="238" width="144" height="214" rx="12" fill="#F4F7FB" stroke="#C9D3E1"/>
  <rect x="456" y="238" width="144" height="214" rx="12" fill="#F4F7FB" stroke="#C9D3E1"/>
  <rect x="632" y="238" width="144" height="214" rx="12" fill="#F4F7FB" stroke="#C9D3E1"/>
  <rect x="306" y="266" width="76" height="12" rx="6" fill="#263579"/>
  <rect x="482" y="266" width="76" height="12" rx="6" fill="#263579"/>
  <rect x="658" y="266" width="76" height="12" rx="6" fill="#263579"/>
  <rect x="306" y="312" width="92" height="56" rx="8" fill="#FFFFFF" stroke="#C9D3E1"/>
  <rect x="482" y="312" width="92" height="56" rx="8" fill="#FFFFFF" stroke="#C9D3E1"/>
  <rect x="658" y="312" width="92" height="56" rx="8" fill="#FFFFFF" stroke="#C9D3E1"/>
  <rect x="322" y="332" width="56" height="8" rx="4" fill="#64748B"/>
  <rect x="498" y="332" width="56" height="8" rx="4" fill="#64748B"/>
  <rect x="674" y="332" width="56" height="8" rx="4" fill="#64748B"/>
  <rect x="306" y="386" width="92" height="36" rx="8" fill="#AEB9D6" fill-opacity="0.24" stroke="#C9D3E1"/>
  <rect x="482" y="386" width="92" height="36" rx="8" fill="#AEB9D6" fill-opacity="0.24" stroke="#C9D3E1"/>
  <rect x="658" y="386" width="92" height="36" rx="8" fill="#AEB9D6" fill-opacity="0.24" stroke="#C9D3E1"/>
</svg>
