<svg width="1200" height="675" viewBox="0 0 1200 675" fill="none" xmlns="http://www.w3.org/2000/svg">
  <rect width="1200" height="675" fill="#F4F7FB"/>
  <rect x="76" y="64" width="1048" height="547" rx="18" fill="#FFFFFF" stroke="#C9D3E1" stroke-width="2"/>
  <rect x="76" y="64" width="1048" height="68" rx="18" fill="#172033"/>
  <rect x="76" y="114" width="1048" height="18" fill="#172033"/>
  <circle cx="114" cy="98" r="9" fill="#C1272D"/>
  <circle cx="144" cy="98" r="9" fill="#F2F0EA" fill-opacity="0.85"/>
  <circle cx="174" cy="98" r="9" fill="#AEB9D6"/>
  <text x="218" y="104" fill="#F2F0EA" font-family="Arial, sans-serif" font-size="22" font-weight="700">Scooter Rental Management</text>
  <rect x="124" y="184" width="404" height="282" rx="14" fill="#F4F7FB" stroke="#C9D3E1"/>
  <rect x="560" y="184" width="516" height="82" rx="14" fill="#263579"/>
  <rect x="560" y="292" width="244" height="174" rx="14" fill="#F4F7FB" stroke="#C9D3E1"/>
  <rect x="832" y="292" width="244" height="174" rx="14" fill="#F4F7FB" stroke="#C9D3E1"/>
  <rect x="144" y="210" width="164" height="16" rx="8" fill="#263579"/>
  <rect x="144" y="244" width="312" height="12" rx="6" fill="#64748B"/>
  <rect x="144" y="270" width="246" height="12" rx="6" fill="#64748B" fill-opacity="0.72"/>
  <rect x="144" y="332" width="336" height="86" rx="12" fill="#FFFFFF" stroke="#C9D3E1"/>
  <circle cx="188" cy="375" r="23" fill="#C1272D" fill-opacity="0.12"/>
  <path d="M166 384H204L218 360" stroke="#C1272D" stroke-width="7" stroke-linecap="round" stroke-linejoin="round"/>
  <circle cx="172" cy="389" r="13" stroke="#263579" stroke-width="6"/>
  <circle cx="218" cy="389" r="13" stroke="#263579" stroke-width="6"/>
  <rect x="252" y="357" width="174" height="12" rx="6" fill="#172033"/>
  <rect x="252" y="383" width="116" height="10" rx="5" fill="#64748B"/>
  <text x="594" y="235" fill="#FFFFFF" font-family="Arial, sans-serif" font-size="28" font-weight="700">Dashboard</text>
  <rect x="826" y="214" width="190" height="14" rx="7" fill="#FFFFFF" fill-opacity="0.7"/>
  <rect x="826" y="238" width="128" height="10" rx="5" fill="#FFFFFF" fill-opacity="0.45"/>
  <rect x="590" y="330" width="140" height="14" rx="7" fill="#263579"/>
  <rect x="590" y="366" width="174" height="12" rx="6" fill="#64748B"/>
  <rect x="590" y="394" width="118" height="12" rx="6" fill="#64748B" fill-opacity="0.72"/>
  <rect x="862" y="330" width="116" height="14" rx="7" fill="#263579"/>
  <rect x="862" y="368" width="154" height="12" rx="6" fill="#64748B"/>
  <rect x="862" y="396" width="104" height="12" rx="6" fill="#64748B" fill-opacity="0.72"/>
  <rect x="124" y="510" width="952" height="40" rx="12" fill="#F4F7FB" stroke="#C9D3E1"/>
  <rect x="154" y="524" width="220" height="12" rx="6" fill="#263579"/>
  <rect x="418" y="524" width="160" height="12" rx="6" fill="#64748B"/>
  <rect x="622" y="524" width="186" height="12" rx="6" fill="#64748B"/>
  <rect x="852" y="524" width="146" height="12" rx="6" fill="#C1272D" fill-opacity="0.75"/>
</svg>
